<?xml version="1.0" standalone="no"?>
<!DOCTYPE svg PUBLIC "-//W3C//DTD SVG 20010904//EN"
 "http://www.w3.org/TR/2001/REC-SVG-20010904/DTD/svg10.dtd">
<svg version="1.0" xmlns="http://www.w3.org/2000/svg"
 width="512.000000pt" height="512.000000pt" viewBox="0 0 512.000000 512.000000"
 preserveAspectRatio="xMidYMid meet">
<metadata>
Created by potrace 1.14, written by Peter Selinger 2001-2017
</metadata>
<g transform="translate(0.000000,512.000000) scale(0.100000,-0.100000)"
fill="#000000" stroke="none">
<path d="M162 3734 l3 -227 145 -53 c80 -29 155 -53 168 -54 12 0 30 -4 40
-10 9 -5 36 -14 60 -20 l42 -11 0 -174 0 -175 285 0 285 0 0 -140 0 -140 -55
0 -55 0 0 -55 0 -55 -125 0 -125 0 0 -90 0 -90 180 0 180 0 0 -807 c0 -445 3
-960 7 -1146 l6 -337 139 0 138 0 0 1145 0 1145 1100 0 1100 0 1 -657 c1 -645
3 -1192 7 -1485 l2 -148 140 0 140 0 0 1145 0 1145 145 0 145 0 0 90 0 90 -90
0 -90 0 0 53 0 52 -55 -2 -55 -2 0 145 0 144 285 0 285 0 0 170 c0 128 3 171
13 174 48 14 370 123 404 137 l43 18 0 226 c0 124 -3 225 -6 225 -4 0 -68 -20
-143 -44 -376 -121 -869 -229 -1304 -285 -354 -46 -505 -55 -947 -55 -521 -1
-799 21 -1260 99 -174 30 -516 99 -590 120 -8 2 -76 20 -150 39 -74 19 -201
55 -282 80 -81 25 -150 46 -153 46 -3 0 -4 -102 -3 -226z m3410 -622 l-4 -102
56 0 56 0 0 -140 0 -140 -55 0 -55 0 0 -55 0 -55 -405 0 -405 0 0 280 0 279
33 5 c17 3 172 8 342 12 171 3 335 10 365 14 30 4 60 6 65 5 6 -1 9 -41 7
-103z m-1507 82 c160 -3 300 -7 313 -10 l22 -4 0 -280 0 -280 -405 0 -405 0 0
55 0 55 -55 0 -55 0 0 140 0 140 55 0 55 0 0 101 0 102 93 -6 c50 -4 223 -9
382 -13z"/>
</g>
</svg>
